<svg width="32" height="32" viewBox="0 0 32 32" fill="none" xmlns="http://www.w3.org/2000/svg">
<path d="M25.3987 6.60133C25.1636 5.69318 24.6905 4.8642 24.028 4.2C22.0147 2.18667 18.5 2.18667 16.4867 4.2C15.6523 5.03704 15.1188 6.12703 14.9697 7.29949C14.8206 8.47195 15.0643 9.66076 15.6627 10.68L10.7107 15.632C8.70401 14.4453 5.92267 14.7667 4.23067 16.456C3.23173 17.4569 2.67068 18.8132 2.67068 20.2273C2.67068 21.6414 3.23173 22.9978 4.23067 23.9987C4.89423 24.6613 5.72282 25.1345 6.63067 25.3693C6.86801 26.2773 7.33734 27.1053 8.00134 27.7693C8.49486 28.2669 9.08235 28.6614 9.72967 28.9299C10.377 29.1983 11.0712 29.3355 11.772 29.3333C12.4726 29.3352 13.1666 29.198 13.8139 28.9297C14.4611 28.6615 15.0487 28.2675 15.5427 27.7707C16.377 26.9338 16.9103 25.8439 17.0591 24.6717C17.208 23.4994 16.964 22.3108 16.3653 21.292L21.3173 16.34C23.3267 17.528 26.108 17.2067 27.7987 15.5147C28.7975 14.514 29.3585 13.1579 29.3585 11.744C29.3585 10.3301 28.7975 8.974 27.7987 7.97333C27.1354 7.31004 26.3068 6.83632 25.3987 6.60133ZM25.9147 13.6293C24.9067 14.636 23.1507 14.6373 22.1427 13.6293L21.2 12.6867L12.716 21.172L13.6587 22.1147C14.1576 22.6153 14.4378 23.2932 14.4378 24C14.4378 24.7068 14.1576 25.3847 13.6587 25.8853C12.6493 26.8947 10.8933 26.892 9.88667 25.8853C9.42246 25.4194 9.15065 24.7959 9.12534 24.1387L9.06267 22.9387L7.86267 22.876C7.20574 22.8495 6.58257 22.5779 6.11601 22.1147C5.61665 21.614 5.33623 20.9358 5.33623 20.2287C5.33623 19.5216 5.61665 18.8433 6.11601 18.3427C6.61867 17.84 7.28801 17.5627 8.00001 17.5627C8.71201 17.5627 9.38134 17.84 9.88534 18.3427L10.828 19.2853L19.3133 10.8013L18.3707 9.85867C17.8713 9.35802 17.5909 8.67977 17.5909 7.97267C17.5909 7.26556 17.8713 6.58731 18.3707 6.08667C19.3787 5.08133 21.1333 5.08133 22.1413 6.08667C22.5987 6.544 22.8693 7.16533 22.904 7.836L22.968 9.032L24.164 9.096C24.8347 9.13067 25.456 9.40133 25.9133 9.85867C26.416 10.3627 26.6933 11.032 26.6933 11.744C26.6933 12.456 26.4173 13.1253 25.9147 13.6293Z" fill="black"/>
</svg>
