<svg width="32" height="32" viewBox="0 0 32 32" fill="none" xmlns="http://www.w3.org/2000/svg">
<path d="M22.45 6C23.1781 5.99939 23.8989 6.14413 24.5704 6.42574C25.2418 6.70736 25.8502 7.12018 26.36 7.64C27.4104 8.70638 27.9992 10.1432 27.9992 11.64C27.9992 13.1368 27.4104 14.5736 26.36 15.64L16 26.13L5.63999 15.64C4.58957 14.5736 4.00078 13.1368 4.00078 11.64C4.00078 10.1432 4.58957 8.70638 5.63999 7.64C6.15008 7.12055 6.75857 6.70795 7.4299 6.42629C8.10124 6.14463 8.82196 5.99957 9.54999 5.99957C10.278 5.99957 10.9987 6.14463 11.6701 6.42629C12.3414 6.70795 12.9499 7.12055 13.46 7.64L16 10.24L18.53 7.66C19.0382 7.13398 19.6473 6.71586 20.3209 6.43064C20.9944 6.14542 21.7185 5.99895 22.45 6V6ZM22.45 4C21.4556 3.99916 20.4711 4.19686 19.5541 4.5815C18.6371 4.96615 17.8062 5.53 17.11 6.24L16 7.36L14.89 6.24C14.1929 5.53128 13.3618 4.96841 12.445 4.58419C11.5282 4.19997 10.5441 4.00209 9.54999 4.00209C8.55593 4.00209 7.57181 4.19997 6.655 4.58419C5.73819 4.96841 4.90704 5.53128 4.20999 6.24C2.79187 7.68363 1.99728 9.62636 1.99728 11.65C1.99728 13.6736 2.79187 15.6164 4.20999 17.06L16 29L27.79 17.06C29.2081 15.6164 30.0027 13.6736 30.0027 11.65C30.0027 9.62636 29.2081 7.68363 27.79 6.24C27.0931 5.5309 26.262 4.96764 25.3452 4.58306C24.4284 4.19848 23.4442 4.00027 22.45 4V4Z" fill="black"/>
</svg>
